<svg width="31" height="31" viewBox="0 0 31 31" fill="none" xmlns="http://www.w3.org/2000/svg">
<path d="M24.579 10.855C24.719 10.39 24.579 10.049 23.917 10.049H21.724C21.166 10.049 20.911 10.344 20.771 10.668C20.771 10.668 19.656 13.387 18.076 15.15C17.566 15.663 17.333 15.825 17.055 15.825C16.916 15.825 16.714 15.663 16.714 15.198V10.855C16.714 10.297 16.553 10.049 16.088 10.049H12.642C12.294 10.049 12.084 10.307 12.084 10.553C12.084 11.081 12.874 11.203 12.955 12.691V15.919C12.955 16.626 12.828 16.755 12.548 16.755C11.805 16.755 9.997 14.026 8.924 10.902C8.715 10.295 8.504 10.05 7.944 10.05H5.752C5.125 10.05 5 10.345 5 10.669C5 11.251 5.743 14.131 8.461 17.94C10.273 20.541 12.824 21.951 15.148 21.951C16.541 21.951 16.713 21.638 16.713 21.098V19.132C16.713 18.506 16.846 18.38 17.287 18.38C17.611 18.38 18.169 18.544 19.47 19.797C20.956 21.283 21.202 21.95 22.037 21.95H24.229C24.855 21.95 25.168 21.637 24.988 21.019C24.791 20.404 24.081 19.509 23.139 18.45C22.627 17.846 21.862 17.196 21.629 16.871C21.304 16.452 21.398 16.267 21.629 15.895C21.63 15.896 24.301 12.134 24.579 10.855Z" fill="#DEA941"/>
<circle cx="15.5" cy="15.5" r="14.5" stroke="#DEA941" stroke-width="2"/>
</svg>
